# 3ds Max Wavefront OBJ Exporter v0.99 - (c)2007 guruware
# File Created: 20.11.2022 12:49:33

#
# object Box020
#

v  543.1688 0.0000 1673.5199
v  543.1688 0.0000 1589.8862
v  570.2133 0.0000 1589.8862
v  570.2133 0.0000 1673.5199
v  543.1688 0.0000 1442.1929
v  543.1688 0.0000 1358.5592
v  570.2133 0.0000 1358.5592
v  570.2133 0.0000 1442.1929
v  543.1688 433.0709 1673.5199
v  570.2133 433.0709 1673.5199
v  570.2133 433.0708 1589.8862
v  543.1688 433.0708 1589.8862
v  570.2133 433.0708 1442.1929
v  543.1688 433.0708 1442.1929
v  570.2133 433.0709 1358.5592
v  543.1688 433.0709 1358.5592
v  570.2133 216.5354 1673.5199
v  543.1688 216.5354 1673.5199
v  570.2133 216.5354 1589.8862
v  570.2133 216.5354 1358.5592
v  570.2133 216.5354 1442.1929
v  543.1688 216.5354 1358.5592
v  543.1688 216.5354 1442.1929
v  543.1688 216.5354 1589.8862
# 24 vertices

vn 0.0000 -1.0000 -0.0000
vn 0.0000 1.0000 -0.0000
vn 0.0000 1.0000 0.0000
vn 0.0000 0.0000 1.0000
vn 1.0000 0.0000 -0.0000
vn 1.0000 0.0000 0.0000
vn 0.0000 0.0000 -1.0000
vn -1.0000 0.0000 0.0000
vn -1.0000 0.0000 -0.0000
# 9 vertex normals

vt 1.0000 0.0000 0.0000
vt 1.0000 0.3333 0.0000
vt 0.0000 0.3333 0.0000
vt 0.0000 0.0000 0.0000
vt 1.0000 0.6667 0.0000
vt 1.0000 1.0000 0.0000
vt 0.0000 1.0000 0.0000
vt 0.0000 0.6667 0.0000
vt 1.0000 0.5000 0.0000
vt 0.0000 0.5000 0.0000
vt 0.3333 0.0000 0.0000
vt 0.3333 0.5000 0.0000
vt 0.6667 0.0000 0.0000
vt 0.6667 0.5000 0.0000
vt 0.3333 1.0000 0.0000
vt 0.6667 1.0000 0.0000
# 16 texture coords

o Box020
g Box020
s 2
f 1/1/1 2/2/1 3/3/1 
f 3/3/1 4/4/1 1/1/1 
f 5/5/1 6/6/1 7/7/1 
f 7/7/1 8/8/1 5/5/1 
s 4
f 9/4/2 10/1/2 11/2/2 
f 11/2/2 12/3/2 9/4/2 
f 12/3/2 11/2/2 13/5/3 
f 13/5/3 14/8/3 12/3/2 
f 14/8/3 13/5/3 15/6/3 
f 15/6/3 16/7/3 14/8/3 
s 8
f 1/4/4 4/1/4 17/9/4 
f 17/9/4 18/10/4 1/4/4 
f 18/10/4 17/9/4 10/6/4 
f 10/6/4 9/7/4 18/10/4 
s 16
f 4/4/5 3/11/5 19/12/5 
f 19/12/5 17/10/5 4/4/5 
f 8/13/6 7/1/6 20/9/6 
f 20/9/6 21/14/6 8/13/6 
f 17/10/5 19/12/5 11/15/5 
f 11/15/5 10/7/5 17/10/5 
f 19/12/5 21/14/6 13/16/6 
f 13/16/6 11/15/5 19/12/5 
f 21/14/6 20/9/6 15/6/6 
f 15/6/6 13/16/6 21/14/6 
s 32
f 7/4/7 6/1/7 22/9/7 
f 22/9/7 20/10/7 7/4/7 
f 20/10/7 22/9/7 16/6/7 
f 16/6/7 15/7/7 20/10/7 
s 64
f 6/4/8 5/11/8 23/12/8 
f 23/12/8 22/10/8 6/4/8 
f 2/13/9 1/1/9 18/9/9 
f 18/9/9 24/14/9 2/13/9 
f 22/10/8 23/12/8 14/15/8 
f 14/15/8 16/7/8 22/10/8 
f 23/12/8 24/14/9 12/16/9 
f 12/16/9 14/15/8 23/12/8 
f 24/14/9 18/9/9 9/6/9 
f 9/6/9 12/16/9 24/14/9 
s 1
f 23/4/1 21/9/1 19/10/1 
f 19/10/1 24/11/1 23/4/1 
s off
f 3/11/7 2/2/7 24/14/7 
f 24/14/7 19/12/7 3/11/7 
s 4
f 5/5/4 8/8/4 21/9/4 
f 21/9/4 23/4/4 5/5/4 
# 44 faces

